# xmcd
#
# Track frame offsets:
#	150
#	25355
#	44535
#	63655
#	88652
#	109628
#	134372
#	162012
#	181613
#	201953
#	224752
#	250209
#	273024
#	294646
#	318032
#
# Disc length: 4513 seconds
#
# Revision: 0
# Processed by: cddbd v1.4PL0 Copyright (c) Steve Scherf et al.
# Submitted via: dBpowerAMP V4.0
#
DISCID=da119f0f
DTITLE=Mani Sharma - Ravoyi Chandamama - Rajakumarudu
DYEAR=1900
DGENRE=Blues
TTITLE0=Naa Kosame
TTITLE1=Nanda Nandana
TTITLE2=Jagadajam Jawani
TTITLE3=Swapnavenuvedo
TTITLE4=Mallepuva
TTITLE5=Letha Letha
TTITLE6=Love To Live
TTITLE7=Jhummani Jhummani
TTITLE8=Gudu Gudu Guncham
TTITLE9=Godari Gattupaina
TTITLE10=Ramachakkanodamma
TTITLE11=Enduke Prayamu
TTITLE12=Eppudeppudu Valapu Chappudu
TTITLE13=Bollowood Balarajuni
TTITLE14=Indrudo Chandrudo
EXTD=
EXTT0=
EXTT1=
EXTT2=
EXTT3=
EXTT4=
EXTT5=
EXTT6=
EXTT7=
EXTT8=
EXTT9=
EXTT10=
EXTT11=
EXTT12=
EXTT13=
EXTT14=
PLAYORDER=
